<svg width="375" height="590" viewBox="0 0 375 590" fill="none" xmlns="http://www.w3.org/2000/svg">
    <!-- Background -->
    <rect width="375" height="590" fill="#F5F5F5"/>

    <!-- App Bar -->
    <rect x="0" y="0" width="375" height="60" fill="#FFFFFF"/>
    <text x="20" y="38" font-family="Arial" font-size="18" fill="#333333">ファイルリスト</text>
    <circle cx="345" cy="25" r="2" fill="#666666"/>
    <circle cx="345" cy="30" r="2" fill="#666666"/>
    <circle cx="345" cy="35" r="2" fill="#666666"/>

    <!-- Category: 研究 (Parent) -->
    <rect x="0" y="60" width="375" height="40" fill="#D0D0D0"/>
    <text x="20" y="85" font-family="Arial" font-size="16" font-weight="bold" fill="#333333">研究 (5)</text>
    <!-- Triangle icon for expanded state -->
    <text x="5" y="88" font-family="Arial" font-size="16" fill="#333333">▼</text>

    <!-- File Item 1 (直接 研究 カテゴリ配下) - Indented -->
    <rect x="0" y="100" width="375" height="70" fill="#FFFFFF"/>
    <circle cx="35" cy="135" r="12" fill="#B0C4DE"/>
    <text x="29" y="140" font-family="Arial" font-size="14" fill="#FFFFFF">📄</text>
    <text x="60" y="125" font-family="Arial" font-size="16" fill="#333333">研究プロジェクト概要</text>
    <rect x="60" y="135" width="50" height="20" rx="4" fill="#ADD8E6"/>
    <text x="65" y="150" font-family="Arial" font-size="10" fill="#333333">#概要</text>

    <!-- Sub-Category: AI -->
    <rect x="0" y="170" width="375" height="30" fill="#E0E0E0"/>
    <text x="30" y="190" font-family="Arial" font-size="16" font-weight="bold" fill="#555555">AI (2)</text>
    <!-- Triangle icon for expanded state -->
    <text x="15" y="193" font-family="Arial" font-size="16" fill="#333333">▼</text>

    <!-- File Item 2 (研究/AI) - Further Indented -->
    <rect x="0" y="200" width="375" height="70" fill="#FFFFFF"/>
    <circle cx="45" cy="235" r="12" fill="#B0C4DE"/>
    <text x="39" y="240" font-family="Arial" font-size="14" fill="#FFFFFF">📄</text>
    <text x="70" y="225" font-family="Arial" font-size="16" fill="#333333">機械学習論文メモ</text>
    <rect x="70" y="235" width="50" height="20" rx="4" fill="#ADD8E6"/>
    <text x="75" y="250" font-family="Arial" font-size="10" fill="#333333">#重要</text>
    <rect x="125" y="235" width="60" height="20" rx="4" fill="#ADD8E6"/>
    <text x="130" y="250" font-family="Arial" font-size="10" fill="#333333">#AI</text>

    <!-- File Item 3 (研究/AI) - Further Indented -->
    <rect x="0" y="270" width="375" height="70" fill="#FFFFFF"/>
    <circle cx="45" cy="305" r="12" fill="#B0C4DE"/>
    <text x="39" y="310" font-family="Arial" font-size="14" fill="#FFFFFF">📄</text>
    <text x="70" y="295" font-family="Arial" font-size="16" fill="#333333">AI倫理に関する考察</text>
    <rect x="70" y="305" width="50" height="20" rx="4" fill="#ADD8E6"/>
    <text x="75" y="320" font-family="Arial" font-size="10" fill="#333333">#倫理</text>

    <!-- Sub-Category: データ分析 (Collapsed) -->
    <rect x="0" y="340" width="375" height="30" fill="#E0E0E0"/>
    <text x="30" y="360" font-family="Arial" font-size="16" font-weight="bold" fill="#555555">データ分析 (2)</text>
    <!-- Triangle icon for collapsed state -->
    <text x="15" y="363" font-family="Arial" font-size="16" fill="#333333">▶</text>

    <!-- Category: 個人 -->
    <rect x="0" y="370" width="375" height="40" fill="#D0D0D0"/>
    <text x="20" y="395" font-family="Arial" font-size="16" font-weight="bold" fill="#333333">個人 (1)</text>
    <!-- Triangle icon for expanded state -->
    <text x="5" y="398" font-family="Arial" font-size="16" fill="#333333">▼</text>

    <!-- File Item 6 (個人) - Indented -->
    <rect x="0" y="410" width="375" height="70" fill="#FFFFFF"/>
    <circle cx="35" cy="445" r="12" fill="#B0C4DE"/>
    <text x="29" y="450" font-family="Arial" font-size="14" fill="#FFFFFF">📄</text>
    <text x="60" y="435" font-family="Arial" font-size="16" fill="#333333">買い物リスト</text>
    <rect x="60" y="445" width="50" height="20" rx="4" fill="#ADD8E6"/>
    <text x="65" y="460" font-family="Arial" font-size="10" fill="#333333">#TODO</text>

    <!-- Category: 未分類 -->
    <rect x="0" y="480" width="375" height="40" fill="#D0D0D0"/>
    <text x="20" y="505" font-family="Arial" font-size="16" font-weight="bold" fill="#333333">未分類 (1)</text>
    <!-- Triangle icon for expanded state -->
    <text x="5" y="508" font-family="Arial" font-size="16" fill="#333333">▼</text>

    <!-- File Item 7 (未分類) - Indented -->
    <rect x="0" y="520" width="375" height="70" fill="#FFFFFF"/>
    <circle cx="35" cy="555" r="12" fill="#B0C4DE"/>
    <text x="29" y="560" font-family="Arial" font-size="14" fill="#FFFFFF">📄</text>
    <text x="60" y="545" font-family="Arial" font-size="16" fill="#333333">今日のメモ</text>
    <rect x="60" y="555" width="50" height="20" rx="4" fill="#ADD8E6"/>
    <text x="65" y="570" font-family="Arial" font-size="10" fill="#333333">#雑記</text>

</svg>