<svg width="800" height="1300" xmlns="http://www.w3.org/2000/svg">
  <!-- Background -->
  <rect width="800" height="1300" fill="#f5f5f5"/>

  <!-- Header -->
  <rect width="800" height="60" fill="#ffffff"/>
  <text x="30" y="38" font-family="Arial, sans-serif" font-size="20" font-weight="bold" fill="#333">LLMモデル設定</text>

  <!-- Main Content Area -->
  <rect x="20" y="80" width="760" height="1200" fill="#ffffff" rx="10"/>

  <!-- Token Capacity Gauges Section -->
  <text x="40" y="115" font-family="Arial, sans-serif" font-size="16" font-weight="bold" fill="#333">トークン保持状況</text>
  <text x="40" y="133" font-family="Arial, sans-serif" font-size="11" fill="#999">買いすぎ予防：各カテゴリーのMax容量に対する保持量</text>

  <!-- Quick Token Gauge -->
  <text x="40" y="160" font-family="Arial, sans-serif" font-size="13" font-weight="bold" fill="#F57C00">⚡ QUICK</text>
  <text x="700" y="160" font-family="Arial, sans-serif" font-size="11" fill="#666" text-anchor="end">2.38M / 5.00M</text>

  <!-- Quick Gauge Background -->
  <rect x="40" y="168" width="720" height="28" fill="#f5f5f5" rx="14" stroke="#e0e0e0" stroke-width="1"/>

  <!-- Quick Gauge Fill - Gemini 1.5 Flash (base layer) -->
  <rect x="40" y="168" width="126" height="28" fill="#FFD54F" rx="14" opacity="0.7"/>

  <!-- Quick Gauge Fill - Gemini 2.5 Flash (装填中 - top layer) -->
  <rect x="40" y="168" width="216" height="28" fill="#FFC107" rx="14"/>

  <!-- Gauge divider line between models -->
  <line x1="166" y1="168" x2="166" y2="196" stroke="#fff" stroke-width="2"/>

  <!-- Percentage text on gauge -->
  <text x="360" y="187" font-family="Arial, sans-serif" font-size="12" font-weight="bold" fill="#333" text-anchor="middle">47.5%</text>

  <!-- Legend for Quick gauge -->
  <rect x="40" y="205" width="12" height="12" fill="#FFC107" rx="2"/>
  <text x="57" y="214" font-family="Arial, sans-serif" font-size="10" fill="#666">2.5 Flash: 1.50M (装填中)</text>
  <rect x="210" y="205" width="12" height="12" fill="#FFD54F" rx="2"/>
  <text x="227" y="214" font-family="Arial, sans-serif" font-size="10" fill="#666">1.5 Flash: 0.88M</text>

  <!-- Warning if approaching limit -->
  <text x="720" y="214" font-family="Arial, sans-serif" font-size="10" fill="#4CAF50" text-anchor="end">✓ 残り2.62M購入可能</text>

  <!-- Think Token Gauge -->
  <text x="40" y="250" font-family="Arial, sans-serif" font-size="13" font-weight="bold" fill="#2E7D32">🧠 THINK</text>
  <text x="700" y="250" font-family="Arial, sans-serif" font-size="11" fill="#666" text-anchor="end">0.77M / 1.00M</text>

  <!-- Think Gauge Background -->
  <rect x="40" y="258" width="720" height="28" fill="#f5f5f5" rx="14" stroke="#e0e0e0" stroke-width="1"/>

  <!-- Think Gauge Fill - Gemini 1.5 Pro (base layer) -->
  <rect x="40" y="258" width="230.4" height="28" fill="#81C784" rx="14" opacity="0.7"/>

  <!-- Think Gauge Fill - Gemini 2.5 Pro (装填中 - top layer) -->
  <rect x="40" y="258" width="554.4" height="28" fill="#4CAF50" rx="14"/>

  <!-- Gauge divider line between models -->
  <line x1="270.4" y1="258" x2="270.4" y2="286" stroke="#fff" stroke-width="2"/>

  <!-- Percentage text on gauge -->
  <text x="360" y="277" font-family="Arial, sans-serif" font-size="12" font-weight="bold" fill="#fff" text-anchor="middle">77.0%</text>

  <!-- Legend for Think gauge -->
  <rect x="40" y="295" width="12" height="12" fill="#4CAF50" rx="2"/>
  <text x="57" y="304" font-family="Arial, sans-serif" font-size="10" fill="#666">2.5 Pro: 0.45M (装填中)</text>
  <rect x="210" y="295" width="12" height="12" fill="#81C784" rx="2"/>
  <text x="227" y="304" font-family="Arial, sans-serif" font-size="10" fill="#666">1.5 Pro: 0.32M</text>

  <!-- Warning if approaching limit -->
  <text x="720" y="304" font-family="Arial, sans-serif" font-size="10" fill="#FF9800" text-anchor="end">⚠ 残り0.23M（上限近い）</text>

  <!-- Separator -->
  <line x1="40" y1="330" x2="760" y2="330" stroke="#e0e0e0" stroke-width="1"/>

  <!-- Token Balance Section -->
  <text x="40" y="365" font-family="Arial, sans-serif" font-size="16" font-weight="bold" fill="#333">装填中のモデル</text>
  <text x="40" y="383" font-family="Arial, sans-serif" font-size="11" fill="#999">チャット画面で使用されるモデルとトークン残高</text>

  <!-- Quick Token Balance Card (with loaded model info) -->
  <rect x="40" y="395" width="340" height="120" fill="#FFF9E6" rx="8" stroke="#FFC107" stroke-width="3"/>
  <circle cx="70" cy="430" r="18" fill="#FFC107"/>
  <text x="70" y="436" font-family="Arial, sans-serif" font-size="18" font-weight="bold" fill="#fff" text-anchor="middle">⚡</text>
  <text x="100" y="425" font-family="Arial, sans-serif" font-size="13" font-weight="bold" fill="#F57C00">QUICK 装填中</text>
  <text x="100" y="443" font-family="Arial, sans-serif" font-size="15" font-weight="bold" fill="#333">Gemini 2.5 Flash</text>
  <text x="100" y="461" font-family="Arial, sans-serif" font-size="11" fill="#666">高速・最新版</text>

  <!-- Token balance for this specific model -->
  <line x1="60" y1="475" x2="360" y2="475" stroke="#FFC107" stroke-width="1" opacity="0.3"/>
  <text x="100" y="495" font-family="Arial, sans-serif" font-size="22" font-weight="bold" fill="#FFC107">1,500,000</text>
  <text x="242" y="495" font-family="Arial, sans-serif" font-size="12" fill="#999">トークン残高</text>

  <!-- Think Token Balance Card (with loaded model info) -->
  <rect x="420" y="395" width="340" height="120" fill="#E8F5E9" rx="8" stroke="#4CAF50" stroke-width="3"/>
  <circle cx="450" cy="430" r="18" fill="#4CAF50"/>
  <text x="450" y="436" font-family="Arial, sans-serif" font-size="18" font-weight="bold" fill="#fff" text-anchor="middle">🧠</text>
  <text x="480" y="425" font-family="Arial, sans-serif" font-size="13" font-weight="bold" fill="#2E7D32">THINK 装填中</text>
  <text x="480" y="443" font-family="Arial, sans-serif" font-size="15" font-weight="bold" fill="#333">Gemini 2.5 Pro</text>
  <text x="480" y="461" font-family="Arial, sans-serif" font-size="11" fill="#666">最高性能・複雑タスク向け</text>

  <!-- Token balance for this specific model -->
  <line x1="440" y1="475" x2="740" y2="475" stroke="#4CAF50" stroke-width="1" opacity="0.3"/>
  <text x="480" y="495" font-family="Arial, sans-serif" font-size="22" font-weight="bold" fill="#4CAF50">450,000</text>
  <text x="600" y="495" font-family="Arial, sans-serif" font-size="12" fill="#999">トークン残高</text>

  <!-- Quick Model Selection Section -->
  <line x1="40" y1="545" x2="760" y2="545" stroke="#e0e0e0" stroke-width="1"/>

  <text x="40" y="585" font-family="Arial, sans-serif" font-size="16" font-weight="bold" fill="#333">Quickモデル一覧</text>
  <text x="40" y="610" font-family="Arial, sans-serif" font-size="12" fill="#666">日常的な会話や軽いタスクに使用するモデルを選択</text>

  <!-- Quick Model Options -->
  <!-- Gemini 2.5 Flash -->
  <rect x="40" y="625" width="720" height="95" fill="#fff" rx="8" stroke="#FFC107" stroke-width="3"/>
  <circle cx="80" cy="660" r="12" fill="#FFC107" stroke="#FFC107" stroke-width="2"/>
  <circle cx="80" cy="660" r="6" fill="#fff"/>
  <text x="110" y="655" font-family="Arial, sans-serif" font-size="15" font-weight="bold" fill="#333">Gemini 2.5 Flash</text>
  <text x="110" y="675" font-family="Arial, sans-serif" font-size="12" fill="#666">高速・最新版（推奨）</text>
  <text x="110" y="695" font-family="Arial, sans-serif" font-size="11" fill="#999">料金: ¥0.30/1M入力 ¥2.50/1M出力</text>

  <!-- Token balance for this model -->
  <rect x="520" y="640" width="230" height="60" fill="#FFF9E6" rx="6"/>
  <text x="540" y="658" font-family="Arial, sans-serif" font-size="11" fill="#999">このモデルの残高</text>
  <text x="540" y="683" font-family="Arial, sans-serif" font-size="20" font-weight="bold" fill="#FFC107">1,500,000</text>
  <text x="680" y="683" font-family="Arial, sans-serif" font-size="11" fill="#999">トークン</text>
  <rect x="640" y="645" width="90" height="26" fill="#FFC107" rx="4"/>
  <text x="685" y="663" font-family="Arial, sans-serif" font-size="11" font-weight="bold" fill="#fff" text-anchor="middle">装填中</text>

  <!-- Gemini 1.5 Flash -->
  <rect x="40" y="735" width="720" height="95" fill="#fafafa" rx="8" stroke="#e0e0e0" stroke-width="1"/>
  <circle cx="80" cy="770" r="12" fill="#fff" stroke="#bbb" stroke-width="2"/>
  <text x="110" y="765" font-family="Arial, sans-serif" font-size="15" font-weight="bold" fill="#333">Gemini 1.5 Flash</text>
  <text x="110" y="785" font-family="Arial, sans-serif" font-size="12" fill="#666">安定版・実績あり</text>
  <text x="110" y="805" font-family="Arial, sans-serif" font-size="11" fill="#999">料金: ¥0.25/1M入力 ¥2.00/1M出力</text>

  <!-- Token balance for this model -->
  <rect x="520" y="750" width="230" height="60" fill="#f5f5f5" rx="6"/>
  <text x="540" y="768" font-family="Arial, sans-serif" font-size="11" fill="#999">このモデルの残高</text>
  <text x="540" y="793" font-family="Arial, sans-serif" font-size="20" font-weight="bold" fill="#666">875,000</text>
  <text x="665" y="793" font-family="Arial, sans-serif" font-size="11" fill="#999">トークン</text>
  <rect x="640" y="755" width="90" height="26" fill="#fff" rx="4" stroke="#ddd" stroke-width="1"/>
  <text x="685" y="773" font-family="Arial, sans-serif" font-size="11" font-weight="bold" fill="#666" text-anchor="middle">選択</text>

  <!-- Think Model Selection Section -->
  <line x1="40" y1="860" x2="760" y2="860" stroke="#e0e0e0" stroke-width="1"/>

  <text x="40" y="900" font-family="Arial, sans-serif" font-size="16" font-weight="bold" fill="#333">Thinkモデル一覧</text>
  <text x="40" y="925" font-family="Arial, sans-serif" font-size="12" fill="#666">複雑な推論や高度なタスクに使用するモデルを選択</text>

  <!-- Think Model Options -->
  <!-- Gemini 2.5 Pro -->
  <rect x="40" y="940" width="720" height="95" fill="#fff" rx="8" stroke="#4CAF50" stroke-width="3"/>
  <circle cx="80" cy="975" r="12" fill="#4CAF50" stroke="#4CAF50" stroke-width="2"/>
  <circle cx="80" cy="975" r="6" fill="#fff"/>
  <text x="110" y="970" font-family="Arial, sans-serif" font-size="15" font-weight="bold" fill="#333">Gemini 2.5 Pro</text>
  <text x="110" y="990" font-family="Arial, sans-serif" font-size="12" fill="#666">最高性能・複雑なタスク向け（推奨）</text>
  <text x="110" y="1010" font-family="Arial, sans-serif" font-size="11" fill="#999">料金: ¥1.25/1M入力 ¥10.00/1M出力</text>

  <!-- Token balance for this model -->
  <rect x="520" y="955" width="230" height="60" fill="#E8F5E9" rx="6"/>
  <text x="540" y="973" font-family="Arial, sans-serif" font-size="11" fill="#999">このモデルの残高</text>
  <text x="540" y="998" font-family="Arial, sans-serif" font-size="20" font-weight="bold" fill="#4CAF50">450,000</text>
  <text x="665" y="998" font-family="Arial, sans-serif" font-size="11" fill="#999">トークン</text>
  <rect x="640" y="960" width="90" height="26" fill="#4CAF50" rx="4"/>
  <text x="685" y="978" font-family="Arial, sans-serif" font-size="11" font-weight="bold" fill="#fff" text-anchor="middle">装填中</text>

  <!-- Gemini 1.5 Pro -->
  <rect x="40" y="1050" width="720" height="95" fill="#fafafa" rx="8" stroke="#e0e0e0" stroke-width="1"/>
  <circle cx="80" cy="1085" r="12" fill="#fff" stroke="#bbb" stroke-width="2"/>
  <text x="110" y="1080" font-family="Arial, sans-serif" font-size="15" font-weight="bold" fill="#333">Gemini 1.5 Pro</text>
  <text x="110" y="1100" font-family="Arial, sans-serif" font-size="12" fill="#666">安定版・コスト重視</text>
  <text x="110" y="1120" font-family="Arial, sans-serif" font-size="11" fill="#999">料金: ¥1.00/1M入力 ¥8.00/1M出力</text>

  <!-- Token balance for this model -->
  <rect x="520" y="1065" width="230" height="60" fill="#f5f5f5" rx="6"/>
  <text x="540" y="1083" font-family="Arial, sans-serif" font-size="11" fill="#999">このモデルの残高</text>
  <text x="540" y="1108" font-family="Arial, sans-serif" font-size="20" font-weight="bold" fill="#666">320,000</text>
  <text x="665" y="1108" font-family="Arial, sans-serif" font-size="11" fill="#999">トークン</text>
  <rect x="640" y="1070" width="90" height="26" fill="#fff" rx="4" stroke="#ddd" stroke-width="1"/>
  <text x="685" y="1088" font-family="Arial, sans-serif" font-size="11" font-weight="bold" fill="#666" text-anchor="middle">選択</text>

  <!-- Additional Models Placeholder -->
  <line x1="40" y1="1175" x2="760" y2="1175" stroke="#e0e0e0" stroke-width="1"/>

  <rect x="40" y="1190" width="720" height="80" fill="#f5f5f5" rx="8" stroke-dasharray="5,5" stroke="#bbb" stroke-width="2"/>
  <text x="400" y="1220" font-family="Arial, sans-serif" font-size="15" font-weight="bold" fill="#999" text-anchor="middle">+ 他のLLMモデルを追加購入</text>
  <text x="400" y="1240" font-family="Arial, sans-serif" font-size="12" fill="#bbb" text-anchor="middle">GPT-4, Claude, Ultra Think等、様々なモデルのトークンを</text>
  <text x="400" y="1257" font-family="Arial, sans-serif" font-size="12" fill="#bbb" text-anchor="middle">個別に購入して使い分けることができます（各カテゴリーに上限あり）</text>
</svg>
